<svg xmlns="http://www.w3.org/2000/svg" viewBox="0 0 484 370"><defs><style>.cls-1{isolation:isolate;}.cls-2,.cls-4{fill:none;}.cls-3{fill:#ebf5ff;}.cls-4,.cls-5{stroke:#05f;stroke-width:5.17px;}.cls-4,.cls-5,.cls-7,.cls-9{stroke-linecap:square;}.cls-4,.cls-5,.cls-7,.cls-8,.cls-9{stroke-miterlimit:10;}.cls-5,.cls-7,.cls-8,.cls-9{fill:#fff;}.cls-6{mix-blend-mode:multiply;}.cls-7,.cls-8,.cls-9{stroke:#251b9f;}.cls-7{stroke-width:3.6px;}.cls-8,.cls-9{stroke-width:4.5px;}</style></defs><title>02</title><g class="cls-1"><g id="Layer_2" data-name="Layer 2"><g id="illos_v1" data-name="illos v1"><rect class="cls-2" width="484" height="370"/><path class="cls-3" d="M407.37,291.93c-66.95,86.55-96.48,14.57-184.59,14.57S40.57,236.36,63.23,156.08c27.27-96.58,99.87-68,176.4-106.8C387.58-25.67,459.28,224.81,407.37,291.93Z"/><circle class="cls-4" cx="237.2" cy="145.35" r="82.98"/><rect class="cls-4" x="323.8" y="233.6" width="24.78" height="75.51" transform="matrix(0.79, -0.62, 0.62, 0.79, -95.81, 265.27)"/><line class="cls-5" x1="288.41" y1="210.65" x2="312.86" y2="241.67"/><g class="cls-6"><path class="cls-7" d="M242.22,251.28a16.48,16.48,0,0,1,16.48,16.48c0,13.24-16.48,32.43-16.48,32.43S225.73,281,225.73,267.76A16.48,16.48,0,0,1,242.22,251.28Z"/><circle class="cls-7" cx="242.22" cy="267.17" r="6.61"/></g><g class="cls-6"><path class="cls-7" d="M123.21,203.88a16.49,16.49,0,0,1,16.49,16.49c0,13.24-16.49,32.42-16.49,32.42s-16.48-19.18-16.48-32.42A16.48,16.48,0,0,1,123.21,203.88Z"/><circle class="cls-7" cx="123.21" cy="219.78" r="6.61"/></g><g class="cls-6"><path class="cls-7" d="M372.15,128.84a16.49,16.49,0,0,1,16.49,16.49c0,13.24-16.49,32.42-16.49,32.42s-16.49-19.18-16.49-32.42A16.49,16.49,0,0,1,372.15,128.84Z"/><circle class="cls-7" cx="372.15" cy="144.74" r="6.61"/></g><path class="cls-8" d="M235.45,98.57a33.76,33.76,0,0,1,33.75,33.76c0,27.12-33.75,66.4-33.75,66.4s-33.76-39.28-33.76-66.4A33.76,33.76,0,0,1,235.45,98.57Z"/><circle class="cls-9" cx="235.45" cy="131.12" r="13.54"/></g></g></g></svg>