<svg xmlns="http://www.w3.org/2000/svg" viewBox="0 0 484 370"><defs><style>.cls-1{isolation:isolate;}.cls-2,.cls-5{fill:none;}.cls-3{fill:#ebf5ff;}.cls-4,.cls-6,.cls-8{fill:#fff;}.cls-5,.cls-6{stroke:#05f;stroke-miterlimit:10;stroke-width:5.17px;}.cls-5,.cls-6,.cls-8{stroke-linecap:square;}.cls-7{fill:#05f;}.cls-8{stroke:#251b9f;stroke-linejoin:round;stroke-width:4.5px;mix-blend-mode:multiply;}</style></defs><title>03</title><g class="cls-1"><g id="Layer_2" data-name="Layer 2"><g id="illos_v1" data-name="illos v1"><rect class="cls-2" width="484" height="370"/><path class="cls-3" d="M59.14,193.63c4.1-109.34,82.59-127.29,170.7-127.29S359.46-6.46,419.74,186.7c29.9,95.8-70.32,149.51-164.65,126.63C93.91,274.24,55.27,296.65,59.14,193.63Z"/><circle class="cls-4" cx="224.58" cy="189.85" r="45.38"/><rect class="cls-5" x="168.57" y="84.47" width="113.12" height="210.21" rx="6.02" transform="translate(-43.38 69.07) rotate(-15.93)"/><line class="cls-6" x1="183.15" y1="108.89" x2="218.54" y2="98.79"/><ellipse class="cls-7" cx="249.47" cy="274.84" rx="6.76" ry="6.66" transform="translate(-65.85 79.02) rotate(-15.93)"/><polyline class="cls-5" points="204.97 201.13 225.01 216.68 241.75 157.54"/><path class="cls-8" d="M162.59,261s-9.07,3.41-12.48,6.83-6.82,13.64-6.82,13.64-3.41-10.23-6.82-13.64S124,261,124,261s9.07-3.41,12.48-6.82,6.82-13.65,6.82-13.65,3.41,10.24,6.82,13.65S162.59,261,162.59,261Z"/><path class="cls-8" d="M357.42,148.88s-12.88,5.15-18,10.3-10.3,20.6-10.3,20.6-5.15-15.45-10.3-20.6-18-10.3-18-10.3,12.88-5.15,18-10.31,10.3-20.6,10.3-20.6,5.15,15.45,10.3,20.6S357.42,148.88,357.42,148.88Z"/><path class="cls-8" d="M174.15,65.89s-6.07,2.42-8.48,4.83-4.82,9.65-4.82,9.65-2.42-7.24-4.83-9.65-8.41-4.83-8.41-4.83,6-2.41,8.41-4.82,4.83-9.65,4.83-9.65,2.41,7.24,4.82,9.65S174.15,65.89,174.15,65.89Z"/></g></g></g></svg>